# xmcd CD database file
#
# Track frame offsets:
#	150
#	32821
#	54079
#	81090
#	102166
#	130442
#	158193
#	184672
#	210098
#	242198
#
# Disc length: 3627 seconds
#
# Revision: 0
# Processed by: cddbd v1.5.2PL0 Copyright (c) Steve Scherf et al.
# Submitted via: CDex 1.79
#
DISCID=790e290a
DTITLE=Various Performers - Venus Jazz Piano Lounge Relaxin' Afternoon Tea Time [CD2]
DYEAR=2013
DGENRE=Jazz
TTITLE0=Moanin' - John Hicks Trio
TTITLE1=Whisper Not - Vladimir Shafranov Trio
TTITLE2=East Of The Sun - Fred Hersch Trio
TTITLE3=In A Sentimental Mood - Eddie Higgins Trio
TTITLE4=You'd Be So Nice To Come Home To - Barbara Carroll
TTITLE5=Turquoise - Cesar Walton Trio
TTITLE6=Embraceable You - Claude Williamson Trio
TTITLE7=It's Only A Paper Moon - Stefano Bollani Trio
TTITLE8=Alice In Wonderland - David Hazeltine Trio
TTITLE9=Smoke Gets In Your Eyes - New York Trio
EXTD=YEAR: 2013
EXTT0=
EXTT1=
EXTT2=
EXTT3=
EXTT4=
EXTT5=
EXTT6=
EXTT7=
EXTT8=
EXTT9=
PLAYORDER=
